<svg width="25" height="24" viewBox="0 0 25 24" fill="none" xmlns="http://www.w3.org/2000/svg">
<path d="M18.25 8C18.25 6.4087 17.6179 4.88258 16.4926 3.75736C15.3674 2.63214 13.8413 2 12.25 2C10.6587 2 9.13258 2.63214 8.00736 3.75736C6.88214 4.88258 6.25 6.4087 6.25 8C6.25 15 3.25 17 3.25 17H21.25C21.25 17 18.25 15 18.25 8Z" stroke="#BDBDBD" stroke-width="2" stroke-linecap="round" stroke-linejoin="round"/>
<path d="M13.98 21C13.8042 21.3031 13.5519 21.5547 13.2482 21.7295C12.9446 21.9044 12.6004 21.9965 12.25 21.9965C11.8996 21.9965 11.5554 21.9044 11.2518 21.7295C10.9482 21.5547 10.6958 21.3031 10.52 21" stroke="#BDBDBD" stroke-width="2" stroke-linecap="round" stroke-linejoin="round"/>
</svg>
