<svg width="47" height="54" viewBox="0 0 47 54" fill="none" xmlns="http://www.w3.org/2000/svg">
<g clip-path="url(#clip0)">
<path opacity="0.4" d="M46.9996 40.5C46.9891 42.2297 45.6357 43.875 43.6319 43.875H3.3651C1.3634 43.875 0.0090017 42.2297 -0.000440265 40.5C-0.00502382 39.6481 0.318702 38.8275 0.902841 38.2103C2.92972 36.0207 6.72224 32.7259 6.72224 21.9375C6.72224 13.7426 12.4378 7.18242 20.1445 5.57297V3.375C20.1445 2.47989 20.4982 1.62145 21.1278 0.988515C21.7574 0.355579 22.6113 0 23.5017 0C24.392 0 25.2459 0.355579 25.8755 0.988515C26.5051 1.62145 26.8588 2.47989 26.8588 3.375V5.57297C34.5592 7.18242 40.2748 13.7426 40.2748 21.9375C40.2748 32.727 44.0673 36.0207 46.0942 38.2103C46.6789 38.8273 47.0034 39.6478 46.9996 40.5Z" fill="#2868C8"/>
<path d="M16.7856 47.25H30.2142C30.2142 49.0402 29.5068 50.7571 28.2476 52.023C26.9885 53.2888 25.2807 54 23.4999 54C21.7192 54 20.0114 53.2888 18.7522 52.023C17.493 50.7571 16.7856 49.0402 16.7856 47.25Z" fill="#2868C8"/>
</g>
<defs>
<clipPath id="clip0">
<rect width="47" height="54" fill="white"/>
</clipPath>
</defs>
</svg>
