<svg width="72" height="72" viewBox="0 0 72 72" fill="none" xmlns="http://www.w3.org/2000/svg">
<path opacity="0.4" d="M36 0.15625C16.1992 0.15625 0.15625 16.1992 0.15625 36C0.15625 55.8008 16.1992 71.8438 36 71.8438C55.8008 71.8438 71.8438 55.8008 71.8438 36C71.8438 16.1992 55.8008 0.15625 36 0.15625ZM58.4471 28.3846L31.8534 54.9784C31.4198 55.4117 30.8318 55.6552 30.2188 55.6552C29.6057 55.6552 29.0177 55.4117 28.5841 54.9784L13.5529 39.9471C13.1195 39.5135 12.8761 38.9256 12.8761 38.3125C12.8761 37.6994 13.1195 37.1115 13.5529 36.6779L16.8221 33.4071C17.0369 33.1923 17.2918 33.0219 17.5724 32.9057C17.853 32.7894 18.1538 32.7296 18.4575 32.7296C18.7612 32.7296 19.062 32.7894 19.3426 32.9057C19.6232 33.0219 19.8781 33.1923 20.0929 33.4071L30.2188 43.533L51.9071 21.8446C52.1219 21.6298 52.3768 21.4594 52.6574 21.3432C52.938 21.2269 53.2388 21.1671 53.5425 21.1671C53.8462 21.1671 54.147 21.2269 54.4276 21.3432C54.7082 21.4594 54.9631 21.6298 55.1779 21.8446L58.4471 25.1154C58.8805 25.549 59.1239 26.1369 59.1239 26.75C59.1239 27.3631 58.8805 27.951 58.4471 28.3846Z" fill="#62A1FF"/>
<path d="M31.8533 54.9784C31.4197 55.4117 30.8317 55.6552 30.2187 55.6552C29.6056 55.6552 29.0176 55.4117 28.584 54.9784L13.5528 39.9471C13.1194 39.5135 12.876 38.9256 12.876 38.3125C12.876 37.6994 13.1194 37.1115 13.5528 36.6779L16.8221 33.4071C17.0368 33.1923 17.2917 33.0219 17.5723 32.9057C17.8529 32.7894 18.1537 32.7296 18.4574 32.7296C18.7612 32.7296 19.0619 32.7894 19.3425 32.9057C19.6231 33.0219 19.8781 33.1923 20.0928 33.4071L30.2187 43.533L51.907 21.8446C52.1218 21.6298 52.3767 21.4594 52.6573 21.3432C52.9379 21.2269 53.2387 21.1671 53.5424 21.1671C53.8461 21.1671 54.1469 21.2269 54.4275 21.3432C54.7081 21.4594 54.963 21.6298 55.1778 21.8446L58.4471 25.1154C58.8804 25.549 59.1238 26.137 59.1238 26.75C59.1238 27.3631 58.8804 27.951 58.4471 28.3847L31.8533 54.9784Z" fill="#62A1FF"/>
</svg>
