<svg width="10" height="10" viewBox="0 0 11 11" fill="none" xmlns="http://www.w3.org/2000/svg">
<path d="M7.61719 5.25L10.3516 2.51562C10.707 2.1875 10.707 1.64062 10.3516 1.3125L9.75 0.710938C9.42188 0.355469 8.875 0.355469 8.54688 0.710938L5.8125 3.44531L3.05078 0.710938C2.72266 0.355469 2.17578 0.355469 1.84766 0.710938L1.24609 1.3125C0.890625 1.64062 0.890625 2.1875 1.24609 2.51562L3.98047 5.25L1.24609 8.01172C0.890625 8.33984 0.890625 8.88672 1.24609 9.21484L1.84766 9.81641C2.17578 10.1719 2.72266 10.1719 3.05078 9.81641L5.8125 7.08203L8.54688 9.81641C8.875 10.1719 9.42188 10.1719 9.75 9.81641L10.3516 9.21484C10.707 8.88672 10.707 8.33984 10.3516 8.01172L7.61719 5.25Z" fill="#6F6F6F"/>
</svg>
