<svg width="18" height="18" viewBox="0 0 18 18" fill="none" xmlns="http://www.w3.org/2000/svg">
<path d="M8.71875 0.53125C3.90234 0.53125 0 4.43359 0 9.25C0 14.0664 3.90234 17.9688 8.71875 17.9688C13.5352 17.9688 17.4375 14.0664 17.4375 9.25C17.4375 4.43359 13.5352 0.53125 8.71875 0.53125ZM15.0117 6.15625H12.6562C12.4102 4.89062 12.0234 3.76562 11.5312 2.85156C13.043 3.51953 14.2734 4.67969 15.0117 6.15625ZM8.71875 2.21875C9.35156 2.21875 10.4062 3.69531 10.9336 6.15625H6.46875C6.99609 3.69531 8.05078 2.21875 8.71875 2.21875ZM1.6875 9.25C1.6875 8.79297 1.72266 8.30078 1.82812 7.84375H4.53516C4.5 8.33594 4.5 8.79297 4.5 9.25C4.5 9.74219 4.5 10.1992 4.53516 10.6562H1.82812C1.72266 10.2344 1.6875 9.74219 1.6875 9.25ZM2.39062 12.3438H4.74609C4.99219 13.6445 5.37891 14.7695 5.87109 15.6836C4.35938 15.0156 3.12891 13.8203 2.39062 12.3438ZM4.74609 6.15625H2.39062C3.12891 4.67969 4.35938 3.51953 5.87109 2.85156C5.37891 3.76562 4.99219 4.89062 4.74609 6.15625ZM8.71875 16.2812C8.05078 16.2812 6.99609 14.8398 6.46875 12.3438H10.9336C10.4062 14.8398 9.35156 16.2812 8.71875 16.2812ZM11.1797 10.6562H6.22266C6.1875 10.2344 6.1875 9.74219 6.1875 9.25C6.1875 8.75781 6.1875 8.30078 6.22266 7.84375H11.1797C11.2148 8.30078 11.25 8.75781 11.25 9.25C11.25 9.74219 11.2148 10.2344 11.1797 10.6562ZM11.5312 15.6836C12.0234 14.7695 12.4102 13.6445 12.6562 12.3438H15.0117C14.2734 13.8203 13.043 15.0156 11.5312 15.6836ZM12.8672 10.6562C12.9023 10.1992 12.9375 9.74219 12.9375 9.25C12.9375 8.79297 12.9023 8.33594 12.8672 7.84375H15.6094C15.6797 8.30078 15.75 8.79297 15.75 9.25C15.75 9.74219 15.6797 10.2344 15.6094 10.6562H12.8672Z" fill="#2868C8"/>
</svg>
