<svg width="16" height="19" viewBox="0 0 16 19" fill="none" xmlns="http://www.w3.org/2000/svg">
<path d="M9.5625 12.625H8.71875V0.8125C8.71875 0.53125 8.4375 0.25 8.15625 0.25H7.59375C7.27734 0.25 7.03125 0.53125 7.03125 0.8125V12.625H6.1875C5.87109 12.625 5.625 12.9062 5.625 13.1875V14.3125C5.625 14.6289 5.87109 14.875 6.1875 14.875H7.03125V17.6875C7.03125 18.0039 7.27734 18.25 7.59375 18.25H8.15625C8.4375 18.25 8.71875 18.0039 8.71875 17.6875V14.875H9.5625C9.84375 14.875 10.125 14.6289 10.125 14.3125V13.1875C10.125 12.9062 9.84375 12.625 9.5625 12.625ZM3.9375 3.625H3.09375V0.8125C3.09375 0.53125 2.8125 0.25 2.53125 0.25H1.96875C1.65234 0.25 1.40625 0.53125 1.40625 0.8125V3.625H0.5625C0.246094 3.625 0 3.90625 0 4.1875V5.3125C0 5.62891 0.246094 5.875 0.5625 5.875H1.40625V17.6875C1.40625 18.0039 1.65234 18.25 1.96875 18.25H2.53125C2.8125 18.25 3.09375 18.0039 3.09375 17.6875V5.875H3.9375C4.21875 5.875 4.5 5.62891 4.5 5.3125V4.1875C4.5 3.90625 4.21875 3.625 3.9375 3.625ZM15.1875 8.125H14.3438V0.8125C14.3438 0.53125 14.0625 0.25 13.7812 0.25H13.2188C12.9023 0.25 12.6562 0.53125 12.6562 0.8125V8.125H11.8125C11.4961 8.125 11.25 8.40625 11.25 8.6875V9.8125C11.25 10.1289 11.4961 10.375 11.8125 10.375H12.6562V17.6875C12.6562 18.0039 12.9023 18.25 13.2188 18.25H13.7812C14.0625 18.25 14.3438 18.0039 14.3438 17.6875V10.375H15.1875C15.4688 10.375 15.75 10.1289 15.75 9.8125V8.6875C15.75 8.40625 15.4688 8.125 15.1875 8.125Z" fill="#2868C8"/>
</svg>
